<svg width="292" height="128" viewBox="0 0 292 128" fill="none" xmlns="http://www.w3.org/2000/svg">
<rect width="292" height="128" rx="8" fill="#00B1AE"/>
<g clip-path="url(#clip0_269_284)">
<path d="M272.208 15.8332H268.25V11.8748C268.25 9.69775 266.469 7.9165 264.292 7.9165C262.115 7.9165 260.333 9.69775 260.333 11.8748V15.8332H228.667V11.8748C228.667 9.69775 226.885 7.9165 224.708 7.9165C222.531 7.9165 220.75 9.69775 220.75 11.8748V15.8332H216.792C212.398 15.8332 208.915 19.3957 208.915 23.7498L208.875 79.1665C208.875 83.5207 212.398 87.0832 216.792 87.0832H272.208C276.562 87.0832 280.125 83.5207 280.125 79.1665V23.7498C280.125 19.3957 276.562 15.8332 272.208 15.8332ZM272.208 75.2082C272.208 77.3853 270.427 79.1665 268.25 79.1665H220.75C218.573 79.1665 216.792 77.3853 216.792 75.2082V35.6248H272.208V75.2082ZM224.708 43.5415H232.625V51.4582H224.708V43.5415ZM240.542 43.5415H248.458V51.4582H240.542V43.5415ZM256.375 43.5415H264.292V51.4582H256.375V43.5415Z" fill="#02DEDA" fill-opacity="0.4"/>
</g>
<defs>
<clipPath id="clip0_269_284">
<rect width="95" height="95" fill="white" transform="translate(197)"/>
</clipPath>
</defs>
</svg>
