<svg width="292" height="128" viewBox="0 0 292 128" fill="none" xmlns="http://www.w3.org/2000/svg">
<rect width="292" height="128" rx="8" fill="#00B1AE"/>
<g clip-path="url(#clip0_269_282)">
<path d="M228.9 83.5413H241.004V74.8955C246.768 73.858 251.725 71.6101 255.875 68.1518C260.025 64.6934 262.1 59.5636 262.1 52.7622C262.1 47.9205 260.716 43.4823 257.95 39.4476C255.183 35.4129 249.65 31.8969 241.35 28.8997C234.433 26.5941 229.649 24.5768 226.998 22.8476C224.346 21.1184 223.021 18.7552 223.021 15.758C223.021 12.7608 224.087 10.3976 226.219 8.66842C228.352 6.93926 231.436 6.07467 235.471 6.07467C239.159 6.07467 242.041 6.96808 244.116 8.75488C246.191 10.5417 247.69 12.7608 248.612 15.4122L259.679 10.9163C258.411 6.88162 256.076 3.36565 252.676 0.368423C249.275 -2.6288 245.5 -4.30033 241.35 -4.64616V-13.292H229.246V-4.64616C223.482 -3.3781 218.986 -0.841991 215.758 2.96217C212.53 6.76634 210.916 11.0316 210.916 15.758C210.916 21.1761 212.501 25.5566 215.672 28.8997C218.842 32.2427 223.827 35.1247 230.629 37.5455C237.891 40.1969 242.935 42.5601 245.759 44.6351C248.583 46.7101 249.996 49.4191 249.996 52.7622C249.996 56.5663 248.641 59.3618 245.932 61.1486C243.223 62.9354 239.966 63.8288 236.162 63.8288C232.358 63.8288 228.986 62.6472 226.047 60.284C223.107 57.9209 220.946 54.3761 219.562 49.6497L208.15 54.1455C209.764 59.6788 212.271 64.1459 215.672 67.5465C219.072 70.9472 223.482 73.2816 228.9 74.5497V83.5413ZM235.125 104.291C225.557 104.291 216.565 102.476 208.15 98.8445C199.734 95.2132 192.414 90.2851 186.189 84.0601C179.964 77.8351 175.036 70.515 171.405 62.0997C167.774 53.6844 165.958 44.6927 165.958 35.1247C165.958 25.5566 167.774 16.565 171.405 8.14967C175.036 -0.265602 179.964 -7.58574 186.189 -13.8107C192.414 -20.0357 199.734 -24.9639 208.15 -28.5951C216.565 -32.2264 225.557 -34.042 235.125 -34.042C244.693 -34.042 253.684 -32.2264 262.1 -28.5951C270.515 -24.9639 277.835 -20.0357 284.06 -13.8107C290.285 -7.58574 295.213 -0.265602 298.844 8.14967C302.476 16.565 304.291 25.5566 304.291 35.1247C304.291 44.6927 302.476 53.6844 298.844 62.0997C295.213 70.515 290.285 77.8351 284.06 84.0601C277.835 90.2851 270.515 95.2132 262.1 98.8445C253.684 102.476 244.693 104.291 235.125 104.291ZM235.125 90.458C250.572 90.458 263.656 85.0976 274.377 74.3768C285.098 63.6559 290.458 50.5719 290.458 35.1247C290.458 19.6775 285.098 6.59343 274.377 -4.12741C263.656 -14.8482 250.572 -20.2087 235.125 -20.2087C219.677 -20.2087 206.593 -14.8482 195.873 -4.12741C185.152 6.59343 179.791 19.6775 179.791 35.1247C179.791 50.5719 185.152 63.6559 195.873 74.3768C206.593 85.0976 219.677 90.458 235.125 90.458Z" fill="#02DEDA" fill-opacity="0.4"/>
</g>
<defs>
<clipPath id="clip0_269_282">
<rect x="152" width="140" height="118" rx="8" fill="white"/>
</clipPath>
</defs>
</svg>
