<svg width="96" height="82" viewBox="0 0 106 90" fill="none" xmlns="http://www.w3.org/2000/svg">
<path d="M82.2125 1.41252L63.2125 20.4125C62.7375 20.8875 62.5 21.4575 62.5 22.1225V60.93C62.5 62.9725 64.9225 64.065 66.4425 62.6875L85.4425 45.5875C85.965 45.16 86.25 44.495 86.25 43.83V3.12252C86.25 0.985023 83.685 -0.0599767 82.2125 1.41252ZM102.732 19.7C100.5 18.56 98.1725 17.61 95.75 16.8025V73.945C90.335 71.9975 84.7775 71 79.125 71C70.1 71 61.17 73.565 53 78.505V21.03C45.305 16.6125 36.4225 14 26.875 14C18.3725 14 10.345 16.09 3.2675 19.7C1.7 20.46 0.75 22.1225 0.75 23.88V81.26C0.75 84.87 4.5975 87.1025 7.78 85.3925C13.5275 82.4 19.9875 80.5 26.875 80.5C36.7075 80.5 45.78 84.395 53 90C60.22 84.395 69.2925 80.5 79.125 80.5C86.0125 80.5 92.4725 82.4 98.22 85.44C101.403 87.15 105.25 84.9175 105.25 81.3075V23.88C105.25 22.1225 104.3 20.46 102.732 19.7Z" fill="#00B1AE"/>
</svg>
