<svg width="384" height="128" viewBox="0 0 384 128" fill="none" xmlns="http://www.w3.org/2000/svg">
<rect width="384" height="128" rx="8" fill="#02DEDA"/>
<g clip-path="url(#clip0_298_587)">
<path d="M119.66 31.1678L66.7431 84.0844C64.6794 86.1482 61.3456 86.1482 59.2819 84.0844L44.3065 69.109C42.2427 67.0453 42.2427 63.7115 44.3065 61.6478C46.3702 59.584 49.704 59.584 51.7677 61.6478L62.986 72.8661L112.146 23.7065C114.209 21.6428 117.543 21.6428 119.607 23.7065C121.724 25.7703 121.724 29.104 119.66 31.1678ZM70.5002 105.833C45.5765 105.833 25.6269 84.1903 28.4315 58.7374C30.4952 40.1107 44.9415 24.8178 63.4094 21.7486C72.9873 20.1611 82.089 21.8544 89.8148 25.8761C91.8785 26.9344 94.3656 26.564 96.006 24.9236C98.546 22.3836 97.911 18.0974 94.736 16.4569C86.9573 12.4882 78.1731 10.3186 68.8069 10.5832C41.6077 11.4299 19.0123 33.549 17.6365 60.6953C16.1019 91.2282 40.3377 116.417 70.5002 116.417C76.8502 116.417 82.8827 115.305 88.5448 113.242C92.1431 111.919 93.1485 107.262 90.3969 104.51C88.9681 103.082 86.7985 102.552 84.8935 103.293C80.3956 104.934 75.5273 105.833 70.5002 105.833ZM107.542 79.3749H96.9585C94.0481 79.3749 91.6669 81.7561 91.6669 84.6665C91.6669 87.5769 94.0481 89.9582 96.9585 89.9582H107.542V100.542C107.542 103.452 109.923 105.833 112.834 105.833C115.744 105.833 118.125 103.452 118.125 100.542V89.9582H128.709C131.619 89.9582 134 87.5769 134 84.6665C134 81.7561 131.619 79.3749 128.709 79.3749H118.125V68.7915C118.125 65.8811 115.744 63.4999 112.834 63.4999C109.923 63.4999 107.542 65.8811 107.542 68.7915V79.3749Z" fill="#0092A5"/>
</g>
<defs>
<clipPath id="clip0_298_587">
<rect width="127" height="127" fill="white" transform="translate(7)"/>
</clipPath>
</defs>
</svg>
