<svg width="79" height="100" viewBox="0 0 79 100" fill="none" xmlns="http://www.w3.org/2000/svg">
<g clip-path="url(#clip0_383_617)">
<path d="M87.0833 8.33366H82.5V3.75033C82.5 1.22949 80.4375 -0.833008 77.9167 -0.833008C75.3958 -0.833008 73.3333 1.22949 73.3333 3.75033V8.33366H36.6667V3.75033C36.6667 1.22949 34.6042 -0.833008 32.0833 -0.833008C29.5625 -0.833008 27.5 1.22949 27.5 3.75033V8.33366H22.9167C17.8292 8.33366 13.7958 12.4587 13.7958 17.5003L13.75 81.667C13.75 86.7087 17.8292 90.8336 22.9167 90.8336H87.0833C92.125 90.8336 96.25 86.7087 96.25 81.667V17.5003C96.25 12.4587 92.125 8.33366 87.0833 8.33366ZM87.0833 77.0837C87.0833 79.6045 85.0208 81.667 82.5 81.667H27.5C24.9792 81.667 22.9167 79.6045 22.9167 77.0837V31.2503H87.0833V77.0837ZM32.0833 40.417H41.25V49.5837H32.0833V40.417ZM50.4167 40.417H59.5833V49.5837H50.4167V40.417ZM68.75 40.417H77.9167V49.5837H68.75V40.417Z" fill="#0092A5" fill-opacity="0.2"/>
</g>
<defs>
<clipPath id="clip0_383_617">
<rect y="-10" width="110" height="110" fill="white"/>
</clipPath>
</defs>
</svg>
