<svg width="416" height="128" viewBox="0 0 416 128" fill="none" xmlns="http://www.w3.org/2000/svg">
<rect width="416" height="128" rx="8" fill="#00B1AE"/>
<g clip-path="url(#clip0_306_345)">
<path d="M323.42 40.665C317.62 38.2 315.155 31.0225 318.635 25.8025C325.667 15.3625 337.412 7.75 352.927 7.75C369.965 7.75 381.637 15.5075 387.582 25.2225C392.657 33.56 395.63 49.1475 387.8 60.7475C379.1 73.58 370.762 77.495 366.267 85.76C365.18 87.7175 364.527 89.3125 364.092 92.575C363.44 97.8675 359.09 102 353.725 102C347.417 102 342.27 96.5625 342.995 90.255C343.43 86.5575 344.3 82.715 346.33 79.09C351.912 69.0125 362.642 63.0675 368.877 54.15C375.475 44.7975 371.777 27.325 353.072 27.325C344.59 27.325 339.08 31.7475 335.672 37.04C333.135 41.1725 327.842 42.4775 323.42 40.665ZM367.5 131C367.5 138.975 360.975 145.5 353 145.5C345.025 145.5 338.5 138.975 338.5 131C338.5 123.025 345.025 116.5 353 116.5C360.975 116.5 367.5 123.025 367.5 131Z" fill="#02DEDA" fill-opacity="0.4"/>
</g>
<defs>
<clipPath id="clip0_306_345">
<rect width="150" height="128" fill="white" transform="translate(266)"/>
</clipPath>
</defs>
</svg>
