<svg width="107" height="90" viewBox="0 0 107 90" fill="none" xmlns="http://www.w3.org/2000/svg">
<g clip-path="url(#clip0_383_504)">
<path d="M58.7734 63.7183H68.0244V57.1241C72.4297 56.3327 76.2182 54.6182 79.39 51.9805C82.5618 49.3428 84.1477 45.4302 84.1477 40.2427C84.1477 36.5499 83.0904 33.1648 80.9759 30.0875C78.8614 27.0102 74.6323 24.3285 68.2887 22.0425C63.0024 20.284 59.3461 18.7453 57.3197 17.4265C55.2932 16.1076 54.28 14.3052 54.28 12.0192C54.28 9.73317 55.095 7.93073 56.7249 6.61187C58.3549 5.29302 60.7117 4.63359 63.7954 4.63359C66.6147 4.63359 68.8174 5.315 70.4033 6.67781C71.9892 8.04063 73.1345 9.73317 73.8394 11.7554L82.2975 8.32639C81.3283 5.24906 79.5442 2.56738 76.9451 0.281364C74.346 -2.00465 71.4605 -3.27955 68.2887 -3.54332V-10.1376H59.0377V-3.54332C54.6324 -2.57616 51.1963 -0.641834 48.7294 2.25965C46.2625 5.16113 45.029 8.41431 45.029 12.0192C45.029 16.1516 46.2404 19.4927 48.6633 22.0425C51.0862 24.5923 54.8968 26.7904 60.095 28.6368C65.6456 30.659 69.5002 32.4614 71.6588 34.0441C73.8173 35.6267 74.8966 37.6929 74.8966 40.2427C74.8966 43.1442 73.8614 45.2763 71.7909 46.6392C69.7205 48.002 67.2315 48.6834 64.324 48.6834C61.4165 48.6834 58.8395 47.7822 56.5928 45.9797C54.3461 44.1773 52.6941 41.4736 51.6369 37.8688L42.9145 41.2978C44.1479 45.5181 46.0642 48.9252 48.6633 51.5189C51.2624 54.1127 54.6324 55.8931 58.7734 56.8603V63.7183ZM63.5311 79.5446C56.2183 79.5446 49.3461 78.1598 42.9145 75.3902C36.4828 72.6206 30.8881 68.8619 26.1304 64.114C21.3727 59.3661 17.6063 53.783 14.8309 47.3645C12.0556 40.9461 10.668 34.088 10.668 26.7904C10.668 19.4927 12.0556 12.6346 14.8309 6.21622C17.6063 -0.202215 21.3727 -5.78537 26.1304 -10.5333C30.8881 -15.2811 36.4828 -19.0399 42.9145 -21.8095C49.3461 -24.5791 56.2183 -25.9639 63.5311 -25.9639C70.8438 -25.9639 77.716 -24.5791 84.1477 -21.8095C90.5794 -19.0399 96.174 -15.2811 100.932 -10.5333C105.689 -5.78537 109.456 -0.202215 112.231 6.21622C115.007 12.6346 116.394 19.4927 116.394 26.7904C116.394 34.088 115.007 40.9461 112.231 47.3645C109.456 53.783 105.689 59.3661 100.932 64.114C96.174 68.8619 90.5794 72.6206 84.1477 75.3902C77.716 78.1598 70.8438 79.5446 63.5311 79.5446ZM63.5311 68.9938C75.3372 68.9938 85.3371 64.9053 93.5309 56.7284C101.725 48.5515 105.822 38.5722 105.822 26.7904C105.822 15.0086 101.725 5.02925 93.5309 -3.14766C85.3371 -11.3246 75.3372 -15.413 63.5311 -15.413C51.725 -15.413 41.725 -11.3246 33.5313 -3.14766C25.3375 5.02925 21.2406 15.0086 21.2406 26.7904C21.2406 38.5722 25.3375 48.5515 33.5313 56.7284C41.725 64.9053 51.725 68.9938 63.5311 68.9938Z" fill="#0092A5" fill-opacity="0.2"/>
</g>
<defs>
<clipPath id="clip0_383_504">
<rect width="107" height="90" rx="8" fill="white"/>
</clipPath>
</defs>
</svg>
