<svg width="29" height="20" viewBox="0 0 29 20" fill="none" xmlns="http://www.w3.org/2000/svg">
<path d="M1.61111 20C1.15463 20 0.771991 19.8403 0.463194 19.5208C0.154398 19.2014 0 18.8056 0 18.3333C0 17.8611 0.154398 17.4653 0.463194 17.1458C0.771991 16.8264 1.15463 16.6667 1.61111 16.6667H27.3889C27.8454 16.6667 28.228 16.8264 28.5368 17.1458C28.8456 17.4653 29 17.8611 29 18.3333C29 18.8056 28.8456 19.2014 28.5368 19.5208C28.228 19.8403 27.8454 20 27.3889 20H1.61111ZM1.61111 11.6667C1.15463 11.6667 0.771991 11.5069 0.463194 11.1875C0.154398 10.8681 0 10.4722 0 10C0 9.52778 0.154398 9.13194 0.463194 8.8125C0.771991 8.49306 1.15463 8.33333 1.61111 8.33333H27.3889C27.8454 8.33333 28.228 8.49306 28.5368 8.8125C28.8456 9.13194 29 9.52778 29 10C29 10.4722 28.8456 10.8681 28.5368 11.1875C28.228 11.5069 27.8454 11.6667 27.3889 11.6667H1.61111ZM1.61111 3.33333C1.15463 3.33333 0.771991 3.17361 0.463194 2.85417C0.154398 2.53472 0 2.13889 0 1.66667C0 1.19444 0.154398 0.798611 0.463194 0.479167C0.771991 0.159722 1.15463 0 1.61111 0H27.3889C27.8454 0 28.228 0.159722 28.5368 0.479167C28.8456 0.798611 29 1.19444 29 1.66667C29 2.13889 28.8456 2.53472 28.5368 2.85417C28.228 3.17361 27.8454 3.33333 27.3889 3.33333H1.61111Z" fill="#0092A5"/>
</svg>
