<svg width="127" height="38" viewBox="0 0 127 38" fill="none" xmlns="http://www.w3.org/2000/svg">
<path d="M25.2292 18.8487C25.6173 18.4775 26.24 18.4775 26.6281 18.8487C27.0162 19.22 27.0162 19.8155 26.6281 20.1867C26.1429 20.6507 25.8923 21.2385 25.868 21.7954C25.8518 22.3058 26.0055 22.7776 26.337 23.1488H27.0243C27.5338 23.1488 27.9462 23.5432 27.9462 24.0305C27.9462 24.5177 27.5338 24.9122 27.0243 24.9122H26.0297C25.9408 24.9122 25.8599 24.8967 25.771 24.8735C25.5041 24.8812 25.2373 24.7884 25.0351 24.6028C23.4017 23.0096 23.5634 20.4497 25.2292 18.8487Z" fill="#15678A"/>
<path d="M16.0999 24.6029C14.4584 23.0097 14.6201 20.4497 16.2859 18.8565C16.674 18.4853 17.2966 18.4853 17.6848 18.8565C18.0729 19.2278 18.0729 19.8233 17.6848 20.1945C17.1996 20.6586 16.9489 21.2463 16.9247 21.8032C16.9085 22.3136 17.0621 22.7854 17.3937 23.1566H17.9031C18.4125 23.1566 18.8249 23.5511 18.8249 24.0383C18.8249 24.5255 18.4125 24.92 17.9031 24.92H16.9085C16.7791 24.92 16.6578 24.8968 16.5446 24.8504C16.3829 24.804 16.2212 24.7266 16.0999 24.6029Z" fill="#15678A"/>
<path d="M14.2561 8.47796C14.2723 8.47796 14.3047 8.47796 14.3451 8.47796C14.8707 8.47796 17.4017 8.50889 19.9893 9.25135C20.1025 8.48569 20.151 7.68909 20.1429 7.00077C20.1429 6.43619 20.1187 5.94122 20.0944 5.59319C20.0702 5.24517 20.0459 5.05182 20.0459 5.05182C20.0135 4.78113 20.1025 4.51818 20.2885 4.31709C20.4745 4.11601 20.7413 4 21.0243 4C28.3262 4 34.2453 9.66125 34.2453 16.645C34.2534 18.6404 33.7521 20.1176 32.6281 21.0456C31.5122 21.9582 30.0809 22.1593 28.5769 22.1748C27.8734 22.1825 26.4017 22.1825 24.6308 22.1825C21.1861 22.1825 16.6335 22.1748 14.6524 22.1748C14.4745 22.2367 14.054 22.4145 13.6335 22.8167C13.0998 23.3271 12.5176 24.1856 12.3478 25.8252C12.3397 25.918 12.3316 26.0263 12.3316 26.15C12.3235 26.7533 12.3235 27.6736 12.7764 28.5785C13.2858 29.5994 15.1214 31.6643 18.275 31.7494C18.3559 31.7494 18.4367 31.7417 18.5176 31.7339C18.7278 31.7107 18.9381 31.6798 19.1645 31.6334C19.1726 31.6334 19.1888 31.6334 19.1968 31.6334C20.337 31.324 21.1214 30.3341 21.1214 29.1972C21.1214 29.0735 21.1133 28.942 21.089 28.826C20.9516 27.8824 20.0863 27.1941 19.1241 27.1941C19.0351 27.1941 18.9462 27.2019 18.8572 27.2096C18.1699 27.3024 17.6928 27.8515 17.6847 28.4857C17.6847 28.5476 17.6928 28.6172 17.7009 28.6868C17.709 28.7718 17.7979 28.9575 17.9192 29.0657C18.0405 29.1817 18.1456 29.2127 18.1861 29.2127C18.2184 29.2049 18.3316 29.2281 18.6065 28.9033C18.9381 28.4934 19.5607 28.4161 19.9974 28.7332C20.434 29.0503 20.5068 29.6458 20.1753 30.0634C19.6658 30.7131 18.93 31.1152 18.1861 31.1075C17.4826 31.1075 16.9084 30.7827 16.5041 30.396C16.0998 30.0015 15.833 29.5143 15.7359 28.9575C15.7117 28.795 15.7036 28.6481 15.7036 28.4857C15.7036 26.9157 16.9084 25.5545 18.5742 25.338C18.7602 25.3148 18.9381 25.2993 19.116 25.2993C21.0567 25.2993 22.7467 26.6527 23.0378 28.5398C23.0702 28.7564 23.0863 28.9807 23.0863 29.1972C23.0863 31.1694 21.4772 32.9714 19.8437 33.4354C18.2265 33.8917 16.9893 33.9923 15.7844 34C14.5149 34 13.1483 33.884 11.6524 33.4818C9.53377 32.9172 7.91652 31.4633 6.42057 29.3983C4.55264 26.8306 3.90574 22.6234 4.01087 20.2645C4.39901 12.4764 8.80601 8.47796 14.2561 8.47796Z" fill="url(#paint0_linear_383_451)"/>
<path d="M28.2533 14.2239C28.2533 13.5974 27.7277 13.0947 27.0727 13.0947C26.4177 13.0947 25.8921 13.5974 25.8921 14.2239C25.8921 14.8503 26.4177 15.353 27.0727 15.353C27.7277 15.353 28.2533 14.8503 28.2533 14.2239Z" fill="#15678A"/>
<path d="M29.4422 14.2231C29.4422 15.476 28.3829 16.4891 27.0729 16.4891C25.7629 16.4891 24.7036 15.476 24.7036 14.2231C24.7036 12.9702 25.7629 11.957 27.0729 11.957C28.3829 11.957 29.4422 12.9702 29.4422 14.2231ZM28.2535 14.2231C28.2535 13.5966 27.7279 13.0939 27.0729 13.0939C26.4179 13.0939 25.8923 13.5966 25.8923 14.2231C25.8923 14.8495 26.4179 15.3522 27.0729 15.3522C27.7279 15.3522 28.2535 14.8495 28.2535 14.2231Z" fill="white"/>
<path d="M20.0298 9.16566C20.0298 9.16566 19.9246 10.3799 19.4071 11.8803C19.1484 11.8803 15.3397 8.33039 9.43677 9.7225C11.6686 8.39227 15.4449 7.93596 20.0298 9.16566Z" fill="url(#paint1_linear_383_451)"/>
<path d="M43.7628 29.144C43.7628 29.7086 43.2696 30.2113 42.6469 30.2113C42.0243 30.2113 41.531 29.7086 41.531 29.144V9.67764C41.531 9.11306 42.0243 8.61035 42.6469 8.61035C43.2696 8.61035 43.7628 9.11306 43.7628 9.67764V29.144Z" fill="#414042"/>
<path d="M71.0619 20.8372V29.2054C71.0619 29.77 70.601 30.2108 70.0107 30.2108C69.4204 30.2108 68.9595 29.77 68.9595 29.2054V21.2471C68.9595 18.7723 68.0457 17.0785 64.8598 17.0785C62.0377 17.0785 60.76 18.5171 60.76 20.8372V29.2054C60.76 29.77 60.2991 30.2108 59.7088 30.2108C59.1185 30.2108 58.6576 29.77 58.6576 29.2054V21.2471C58.6576 18.7723 57.8409 17.0785 54.6226 17.0785C51.5741 17.0785 50.5875 18.8341 50.5875 21.4637V29.2054C50.5875 29.77 50.1266 30.2108 49.5363 30.2108C48.946 30.2108 48.4851 29.77 48.4851 29.2054V16.483C48.4851 15.9184 48.946 15.4776 49.5363 15.4776C50.1266 15.4776 50.5875 15.9184 50.5875 16.483V17.4884C51.1455 16.3283 52.7142 15.292 54.849 15.292C57.5336 15.292 59.2722 16.2355 60.0565 17.4884C60.8732 16.2665 62.3207 15.292 64.8436 15.292C69.9137 15.292 71.0619 18.1768 71.0619 20.8372Z" fill="#414042"/>
<path d="M87.7762 22.8103C87.7762 27.9534 85.1563 30.3664 80.8948 30.3664C76.6657 30.3664 74.0134 27.9534 74.0134 22.8103C74.0134 17.6672 76.6657 15.2852 80.8948 15.2852C85.1563 15.2929 87.7762 17.6749 87.7762 22.8103ZM85.6414 22.8103C85.6414 18.8582 83.9029 17.1026 80.8867 17.1026C77.8706 17.1026 76.132 18.8582 76.132 22.8103C76.132 26.8242 77.8706 28.5489 80.8867 28.5489C83.911 28.5489 85.6414 26.8242 85.6414 22.8103Z" fill="#414042"/>
<path d="M104.191 22.8098C104.191 27.9528 101.701 30.3658 97.4718 30.3658C93.7359 30.3658 91.0513 28.3318 91.0513 24.1941V8.64116C91.0513 8.07658 91.5122 7.63574 92.1025 7.63574C92.6928 7.63574 93.1537 8.07658 93.1537 8.64116V17.3264C93.9057 16.321 95.5149 15.2924 97.6092 15.2924C101.83 15.2924 104.191 17.6744 104.191 22.8098ZM93.1456 24.1941C93.1456 27.1717 94.9488 28.5483 97.4718 28.5483C100.488 28.5483 102.089 26.7309 102.089 22.8098C102.089 18.9505 100.447 17.1021 97.4718 17.1021C94.3909 17.1021 93.1456 19.8631 93.1456 19.8631V24.1941Z" fill="#414042"/>
<path d="M107.571 15.7256H116.555C117.113 15.7256 117.542 16.1355 117.542 16.6691C117.542 16.9475 117.412 17.1718 117.315 17.2956L109.156 28.0148H116.725C117.283 28.0148 117.744 28.4557 117.744 28.9893C117.744 29.523 117.283 29.9638 116.725 29.9638H107.119C106.561 29.9638 106.132 29.5539 106.132 29.0202C106.132 28.7418 106.229 28.5485 106.358 28.3938L114.615 17.6127H107.571C107.013 17.6127 106.585 17.2028 106.585 16.6691C106.585 16.1355 107.013 15.7256 107.571 15.7256Z" fill="#414042"/>
<path d="M120.51 11.3408C120.51 10.4282 120.97 10.0879 121.755 10.0879C122.539 10.0879 123 10.4359 123 11.3408C123 12.091 122.539 12.5318 121.755 12.5318C120.97 12.5318 120.51 12.091 120.51 11.3408ZM122.806 29.2062C122.806 29.7708 122.345 30.2116 121.755 30.2116C121.164 30.2116 120.704 29.7708 120.704 29.2062V16.4839C120.704 15.9193 121.164 15.4785 121.755 15.4785C122.345 15.4785 122.806 15.9193 122.806 16.4839V29.2062Z" fill="#414042"/>
<defs>
<linearGradient id="paint0_linear_383_451" x1="27.4393" y1="3.46476" x2="14.6805" y2="27.227" gradientUnits="userSpaceOnUse">
<stop stop-color="#5AC3B1"/>
<stop offset="0.0958301" stop-color="#58BBAE"/>
<stop offset="0.2372" stop-color="#50ADAA"/>
<stop offset="0.4067" stop-color="#4497A2"/>
<stop offset="0.5964" stop-color="#357C98"/>
<stop offset="0.7641" stop-color="#26648E"/>
</linearGradient>
<linearGradient id="paint1_linear_383_451" x1="9.92758" y1="-3.45137" x2="17.5962" y2="19.0633" gradientUnits="userSpaceOnUse">
<stop stop-color="#5AC3B1"/>
<stop offset="0.0958301" stop-color="#58BBAE"/>
<stop offset="0.2372" stop-color="#50ADAA"/>
<stop offset="0.4067" stop-color="#4497A2"/>
<stop offset="0.5964" stop-color="#357C98"/>
<stop offset="0.7641" stop-color="#26648E"/>
</linearGradient>
</defs>
</svg>
