<svg width="42" height="42" viewBox="0 0 42 42" fill="none" xmlns="http://www.w3.org/2000/svg">
<path d="M8.75 33.25C8.25417 33.25 7.83854 33.0823 7.50313 32.7469C7.16771 32.4115 7 31.9958 7 31.5C7 31.0042 7.16771 30.5885 7.50313 30.2531C7.83854 29.9177 8.25417 29.75 8.75 29.75H10.5V17.5C10.5 15.0792 11.2292 12.9281 12.6875 11.0469C14.1458 9.16563 16.0417 7.93333 18.375 7.35V6.125C18.375 5.39583 18.6302 4.77604 19.1406 4.26562C19.651 3.75521 20.2708 3.5 21 3.5C21.7292 3.5 22.349 3.75521 22.8594 4.26562C23.3698 4.77604 23.625 5.39583 23.625 6.125V7.35C25.9583 7.93333 27.8542 9.16563 29.3125 11.0469C30.7708 12.9281 31.5 15.0792 31.5 17.5V29.75H33.25C33.7458 29.75 34.1615 29.9177 34.4969 30.2531C34.8323 30.5885 35 31.0042 35 31.5C35 31.9958 34.8323 32.4115 34.4969 32.7469C34.1615 33.0823 33.7458 33.25 33.25 33.25H8.75ZM21 38.5C20.0375 38.5 19.2135 38.1573 18.5281 37.4719C17.8427 36.7865 17.5 35.9625 17.5 35H24.5C24.5 35.9625 24.1573 36.7865 23.4719 37.4719C22.7865 38.1573 21.9625 38.5 21 38.5Z" fill="#0092A5"/>
<circle cx="31" cy="12" r="5" fill="#FF6565"/>
</svg>
