<svg width="416" height="128" viewBox="0 0 416 128" fill="none" xmlns="http://www.w3.org/2000/svg">
<rect width="416" height="128" rx="8" fill="#00B1AE"/>
<g clip-path="url(#clip0_306_335)">
<path d="M315.405 120.739C314.872 120.739 314.362 120.542 313.973 120.162L290.581 96.7137C289.807 95.9495 289.807 94.6855 290.581 93.9021L313.973 70.4246C314.545 69.8623 315.405 69.6796 316.155 69.9968C316.905 70.2852 317.386 71.0301 317.386 71.8424V86.3614H381.489C383.262 86.3614 384.709 84.9148 384.709 83.151V66.8104C384.709 66.2769 384.916 65.7723 385.281 65.3926L400.933 49.6816C401.501 49.1145 402.375 48.9319 403.116 49.2443C403.87 49.5615 404.356 50.3016 404.356 51.0994V86.621C404.356 99.3089 397.65 106.009 384.969 106.009H317.391V118.754C317.391 119.557 316.91 120.283 316.16 120.581C315.92 120.681 315.646 120.739 315.405 120.739Z" fill="#02DEDA" fill-opacity="0.4"/>
<path d="M295.629 78.9074C295.364 78.9074 295.109 78.8498 294.864 78.7488C294.114 78.446 293.624 77.7251 293.624 76.9081V41.3914C293.624 28.6986 300.316 22.0086 313.011 22.0086H380.618V9.22929C380.618 8.43629 381.104 7.70578 381.849 7.37896C382.608 7.08579 383.459 7.22998 384.036 7.82112L407.418 31.2506C408.197 32.0292 408.197 33.3028 407.418 34.0766L384.036 57.5397C383.464 58.1213 382.613 58.2991 381.854 57.9771C381.109 57.6743 380.623 56.939 380.623 56.1219V41.6365H316.477C314.713 41.6365 313.285 43.0783 313.285 44.8517V61.1971C313.285 61.7258 313.078 62.2208 312.689 62.6197L297.027 78.3115C296.657 78.696 296.157 78.9074 295.629 78.9074Z" fill="#02DEDA" fill-opacity="0.4"/>
</g>
<defs>
<clipPath id="clip0_306_335">
<rect width="118" height="120" fill="white" transform="translate(290 4)"/>
</clipPath>
</defs>
</svg>
