<svg width="385" height="128" viewBox="0 0 385 128" fill="none" xmlns="http://www.w3.org/2000/svg">
<rect x="0.966797" width="384" height="128" rx="8" fill="#02DEDA"/>
<g clip-path="url(#clip0_298_577)">
<path fill-rule="evenodd" clip-rule="evenodd" d="M104.333 17.5H21.6663C15.983 17.5 11.333 22.15 11.333 27.8333V100.167C11.333 105.85 15.983 110.5 21.6663 110.5H104.333C110.016 110.5 114.666 105.85 114.666 100.167V27.8333C114.666 22.15 110.016 17.5 104.333 17.5ZM47.4997 89.8333H31.9997C29.158 89.8333 26.833 87.5083 26.833 84.6667C26.833 81.825 29.158 79.5 31.9997 79.5H47.4997C50.3413 79.5 52.6663 81.825 52.6663 84.6667C52.6663 87.5083 50.3413 89.8333 47.4997 89.8333ZM47.4997 69.1667H31.9997C29.158 69.1667 26.833 66.8417 26.833 64C26.833 61.1583 29.158 58.8333 31.9997 58.8333H47.4997C50.3413 58.8333 52.6663 61.1583 52.6663 64C52.6663 66.8417 50.3413 69.1667 47.4997 69.1667ZM47.4997 48.5H31.9997C29.158 48.5 26.833 46.175 26.833 43.3333C26.833 40.4917 29.158 38.1667 31.9997 38.1667H47.4997C50.3413 38.1667 52.6663 40.4917 52.6663 43.3333C52.6663 46.175 50.3413 48.5 47.4997 48.5ZM97.6163 59.4533L81.238 75.8317C79.223 77.8467 75.9163 77.8467 73.9013 75.8317L66.6163 68.495C64.6013 66.48 64.6013 63.225 66.6163 61.21C68.6313 59.195 71.8863 59.195 73.9013 61.21L77.5697 64.8783L90.3313 52.1167C92.3463 50.1017 95.6013 50.1017 97.6163 52.1167L97.668 52.1683C99.6313 54.1833 99.6313 57.49 97.6163 59.4533Z" fill="#0092A5"/>
</g>
<defs>
<clipPath id="clip0_298_577">
<rect width="124" height="124" fill="white" transform="translate(1 2)"/>
</clipPath>
</defs>
</svg>
