<svg width="384" height="128" viewBox="0 0 384 128" fill="none" xmlns="http://www.w3.org/2000/svg">
<rect width="384" height="128" rx="8" fill="#00B1AE"/>
<g clip-path="url(#clip0_262_278)">
<path fill-rule="evenodd" clip-rule="evenodd" d="M103.366 17.5H20.6995C15.0162 17.5 10.3662 22.15 10.3662 27.8333V100.167C10.3662 105.85 15.0162 110.5 20.6995 110.5H103.366C109.05 110.5 113.7 105.85 113.7 100.167V27.8333C113.7 22.15 109.05 17.5 103.366 17.5ZM46.5329 89.8333H31.0329C28.1912 89.8333 25.8662 87.5083 25.8662 84.6667C25.8662 81.825 28.1912 79.5 31.0329 79.5H46.5329C49.3745 79.5 51.6995 81.825 51.6995 84.6667C51.6995 87.5083 49.3745 89.8333 46.5329 89.8333ZM46.5329 69.1667H31.0329C28.1912 69.1667 25.8662 66.8417 25.8662 64C25.8662 61.1583 28.1912 58.8333 31.0329 58.8333H46.5329C49.3745 58.8333 51.6995 61.1583 51.6995 64C51.6995 66.8417 49.3745 69.1667 46.5329 69.1667ZM46.5329 48.5H31.0329C28.1912 48.5 25.8662 46.175 25.8662 43.3333C25.8662 40.4917 28.1912 38.1667 31.0329 38.1667H46.5329C49.3745 38.1667 51.6995 40.4917 51.6995 43.3333C51.6995 46.175 49.3745 48.5 46.5329 48.5ZM96.6495 59.4533L80.2712 75.8317C78.2562 77.8467 74.9495 77.8467 72.9345 75.8317L65.6495 68.495C63.6345 66.48 63.6345 63.225 65.6495 61.21C67.6645 59.195 70.9195 59.195 72.9345 61.21L76.6029 64.8783L89.3645 52.1167C91.3795 50.1017 94.6345 50.1017 96.6495 52.1167L96.7012 52.1683C98.6645 54.1833 98.6645 57.49 96.6495 59.4533Z" fill="#02DEDA" fill-opacity="0.4"/>
</g>
<defs>
<clipPath id="clip0_262_278">
<rect width="124" height="124" fill="white" transform="translate(0.0332031 2)"/>
</clipPath>
</defs>
</svg>
