<svg width="31" height="32" viewBox="0 0 31 32" fill="none" xmlns="http://www.w3.org/2000/svg">
<g clip-path="url(#clip0_214_35)">
<path d="M15.4999 2.66666C8.36992 2.66666 2.58325 8.63999 2.58325 16C2.58325 23.36 8.36992 29.3333 15.4999 29.3333C22.6299 29.3333 28.4166 23.36 28.4166 16C28.4166 8.63999 22.6299 2.66666 15.4999 2.66666ZM15.4999 7.99999C17.9928 7.99999 20.0208 10.0933 20.0208 12.6667C20.0208 15.24 17.9928 17.3333 15.4999 17.3333C13.007 17.3333 10.9791 15.24 10.9791 12.6667C10.9791 10.0933 13.007 7.99999 15.4999 7.99999ZM15.4999 26.6667C12.8778 26.6667 9.77784 25.5733 7.56909 22.8267C9.752 21.0667 12.5033 20 15.4999 20C18.4966 20 21.2478 21.0667 23.4308 22.8267C21.222 25.5733 18.122 26.6667 15.4999 26.6667Z" fill="#0092A5"/>
</g>
<defs>
<clipPath id="clip0_214_35">
<rect width="31" height="32" fill="white"/>
</clipPath>
</defs>
</svg>
